<svg width="32" height="32" viewBox="0 0 32 32" fill="none" xmlns="http://www.w3.org/2000/svg">
<g clip-path="url(#clip0_307_761)">
<rect width="32" height="32" rx="16" fill="#253765"/>
<g clip-path="url(#clip1_307_761)">
<rect x="21.416" y="7.00586" width="8.58334" height="8.62276" rx="4.29167" fill="#246CAE"/>
<rect width="28.5484" height="23.7053" rx="4" transform="matrix(0.965628 -0.259928 0.257715 0.966221 -10.8936 10.3037)" fill="#C5C7DD"/>
<rect width="28.5484" height="23.7053" rx="4" transform="matrix(0.965628 -0.259928 0.257715 0.966221 -6.12598 9.02051)" fill="#EBEBF3"/>
<rect width="23.3968" height="18.5333" rx="2" transform="matrix(0.965628 -0.259928 0.257715 0.966221 -2.97266 10.8496)" fill="#272A49"/>
<path d="M18.1229 31.8144C17.4844 30.7034 17.8654 29.2816 18.9738 28.6387L23.0283 26.2871C25.2228 25.0142 28.0266 25.7655 29.2908 27.9651V27.9651C29.4488 28.24 29.3545 28.5919 29.0802 28.751L21.0319 33.419C20.2089 33.8963 19.1575 33.6146 18.6835 32.7897L18.1229 31.8144Z" fill="#C5C7DD"/>
<path d="M23.5183 31.9775L29.0933 28.744C29.367 28.5853 29.4608 28.2337 29.3028 27.9587C28.0386 25.7592 25.2389 25.0055 23.0494 26.2755L18.9858 28.6323C18.7674 28.759 18.5773 28.916 18.4177 29.0949C20.4131 28.4767 22.6394 29.2987 23.7277 31.1923C23.8857 31.4672 23.792 31.8188 23.5183 31.9775Z" fill="#EBEBF3"/>
<ellipse cx="1.2879" cy="1.29302" rx="1.2879" ry="1.29302" transform="matrix(-0.965628 0.259928 0.257715 0.966221 17.8486 13.9482)" fill="#10DDFF"/>
<ellipse cx="1.2879" cy="1.29302" rx="1.2879" ry="1.29302" transform="matrix(-0.965628 0.259928 0.257715 0.966221 7.07031 16.8496)" fill="#10DDFF"/>
<path d="M12.915 17.0613C13.3663 16.9398 13.8476 17.217 13.7868 17.6807V17.6807C13.75 17.9613 13.6586 18.232 13.5177 18.4771C13.3768 18.7223 13.1892 18.9372 12.9656 19.1095C12.7421 19.2819 12.4869 19.4083 12.2147 19.4815C11.9425 19.5548 11.6586 19.5735 11.3793 19.5365C11.0999 19.4996 10.8305 19.4077 10.5864 19.2662C10.3424 19.1246 10.1285 18.9362 9.95694 18.7116V18.7116C9.67353 18.3405 9.95243 17.8588 10.4037 17.7373L11.6593 17.3993L12.915 17.0613Z" fill="#10DDFF"/>
</g>
</g>
<defs>
<clipPath id="clip0_307_761">
<rect width="32" height="32" rx="16" fill="white"/>
</clipPath>
<clipPath id="clip1_307_761">
<rect width="41.2" height="36" fill="white" transform="translate(-11.2002 1.59961)"/>
</clipPath>
</defs>
</svg>
