<svg width="260" height="220" viewBox="0 0 260 220" fill="none" xmlns="http://www.w3.org/2000/svg">
    <path d="M21.1016 96.2972C21.1016 91.8536 24.7006 88.2515 29.1402 88.2515H53.2562V198.88H29.1402C24.7006 198.88 21.1016 195.277 21.1016 190.834V96.2972Z" fill="#C5C7DD"/>
    <path d="M31.1493 121.44C31.1493 120.884 30.6994 120.434 30.1445 120.434C29.5895 120.434 29.1396 120.884 29.1396 121.44V121.805C29.1396 122.361 29.5895 122.811 30.1445 122.811C30.6994 122.811 31.1493 122.361 31.1493 121.805V121.44Z" fill="#EBEBF3"/>
    <path d="M31.1493 125.828C31.1493 125.273 30.6994 124.823 30.1445 124.823C29.5895 124.823 29.1396 125.273 29.1396 125.828V126.194C29.1396 126.749 29.5895 127.2 30.1445 127.2C30.6994 127.2 31.1493 126.749 31.1493 126.194V125.828Z" fill="#EBEBF3"/>
    <path d="M31.1493 130.217C31.1493 129.661 30.6994 129.211 30.1445 129.211C29.5895 129.211 29.1396 129.661 29.1396 130.217V130.583C29.1396 131.138 29.5895 131.588 30.1445 131.588C30.6994 131.588 31.1493 131.138 31.1493 130.583V130.217Z" fill="#EBEBF3"/>
    <path d="M31.1493 134.605C31.1493 134.05 30.6994 133.599 30.1445 133.599C29.5895 133.599 29.1396 134.05 29.1396 134.605V134.971C29.1396 135.526 29.5895 135.977 30.1445 135.977C30.6994 135.977 31.1493 135.526 31.1493 134.971V134.605Z" fill="#EBEBF3"/>
    <path d="M31.1493 138.994C31.1493 138.438 30.6994 137.988 30.1445 137.988C29.5895 137.988 29.1396 138.438 29.1396 138.994V139.36C29.1396 139.915 29.5895 140.365 30.1445 140.365C30.6994 140.365 31.1493 139.915 31.1493 139.36V138.994Z" fill="#EBEBF3"/>
    <path d="M31.1493 143.383C31.1493 142.827 30.6994 142.377 30.1445 142.377C29.5895 142.377 29.1396 142.827 29.1396 143.383V143.748C29.1396 144.304 29.5895 144.754 30.1445 144.754C30.6994 144.754 31.1493 144.304 31.1493 143.748V143.383Z" fill="#EBEBF3"/>
    <path d="M31.1493 147.771C31.1493 147.215 30.6994 146.765 30.1445 146.765C29.5895 146.765 29.1396 147.215 29.1396 147.771V148.137C29.1396 148.692 29.5895 149.142 30.1445 149.142C30.6994 149.142 31.1493 148.692 31.1493 148.137V147.771Z" fill="#EBEBF3"/>
    <path d="M31.1493 152.16C31.1493 151.605 30.6994 151.154 30.1445 151.154C29.5895 151.154 29.1396 151.605 29.1396 152.16V152.526C29.1396 153.081 29.5895 153.531 30.1445 153.531C30.6994 153.531 31.1493 153.081 31.1493 152.526V152.16Z" fill="#EBEBF3"/>
    <path d="M31.1493 156.549C31.1493 155.993 30.6994 155.543 30.1445 155.543C29.5895 155.543 29.1396 155.993 29.1396 156.549V156.914C29.1396 157.47 29.5895 157.92 30.1445 157.92C30.6994 157.92 31.1493 157.47 31.1493 156.914V156.549Z" fill="#EBEBF3"/>
    <path d="M31.1493 160.937C31.1493 160.381 30.6994 159.931 30.1445 159.931C29.5895 159.931 29.1396 160.381 29.1396 160.937V161.303C29.1396 161.858 29.5895 162.308 30.1445 162.308C30.6994 162.308 31.1493 161.858 31.1493 161.303V160.937Z" fill="#EBEBF3"/>
    <path d="M31.1493 165.326C31.1493 164.77 30.6994 164.32 30.1445 164.32C29.5895 164.32 29.1396 164.77 29.1396 165.326V165.691C29.1396 166.247 29.5895 166.697 30.1445 166.697C30.6994 166.697 31.1493 166.247 31.1493 165.691V165.326Z" fill="#EBEBF3"/>
    <path d="M35.1688 121.44C35.1688 120.884 34.719 120.434 34.164 120.434C33.6091 120.434 33.1592 120.884 33.1592 121.44C33.1592 121.995 33.6091 122.445 34.164 122.445C34.719 122.445 35.1688 121.995 35.1688 121.44Z" fill="#EBEBF3"/>
    <path d="M35.1688 125.463C35.1688 124.907 34.719 124.457 34.164 124.457C33.6091 124.457 33.1592 124.907 33.1592 125.463C33.1592 126.018 33.6091 126.469 34.164 126.469C34.719 126.469 35.1688 126.018 35.1688 125.463Z" fill="#EBEBF3"/>
    <path d="M35.1688 129.486C35.1688 128.93 34.719 128.48 34.164 128.48C33.6091 128.48 33.1592 128.93 33.1592 129.486C33.1592 130.041 33.6091 130.491 34.164 130.491C34.719 130.491 35.1688 130.041 35.1688 129.486Z" fill="#EBEBF3"/>
    <path d="M35.1688 133.508C35.1688 132.953 34.719 132.502 34.164 132.502C33.6091 132.502 33.1592 132.953 33.1592 133.508C33.1592 134.064 33.6091 134.514 34.164 134.514C34.719 134.514 35.1688 134.064 35.1688 133.508Z" fill="#EBEBF3"/>
    <path d="M35.1688 137.531C35.1688 136.976 34.719 136.526 34.164 136.526C33.6091 136.526 33.1592 136.976 33.1592 137.531C33.1592 138.087 33.6091 138.537 34.164 138.537C34.719 138.537 35.1688 138.087 35.1688 137.531Z" fill="#EBEBF3"/>
    <path d="M35.1688 141.554C35.1688 140.998 34.719 140.548 34.164 140.548C33.6091 140.548 33.1592 140.998 33.1592 141.554C33.1592 142.109 33.6091 142.56 34.164 142.56C34.719 142.56 35.1688 142.109 35.1688 141.554Z" fill="#EBEBF3"/>
    <path d="M35.1688 145.577C35.1688 145.022 34.719 144.571 34.164 144.571C33.6091 144.571 33.1592 145.022 33.1592 145.577C33.1592 146.133 33.6091 146.583 34.164 146.583C34.719 146.583 35.1688 146.133 35.1688 145.577Z" fill="#EBEBF3"/>
    <path d="M35.1688 149.6C35.1688 149.045 34.719 148.594 34.164 148.594C33.6091 148.594 33.1592 149.045 33.1592 149.6C33.1592 150.155 33.6091 150.606 34.164 150.606C34.719 150.606 35.1688 150.155 35.1688 149.6Z" fill="#EBEBF3"/>
    <path d="M35.1688 153.622C35.1688 153.067 34.719 152.617 34.164 152.617C33.6091 152.617 33.1592 153.067 33.1592 153.622C33.1592 154.178 33.6091 154.628 34.164 154.628C34.719 154.628 35.1688 154.178 35.1688 153.622Z" fill="#EBEBF3"/>
    <path d="M35.1688 157.646C35.1688 157.09 34.719 156.64 34.164 156.64C33.6091 156.64 33.1592 157.09 33.1592 157.646C33.1592 158.201 33.6091 158.651 34.164 158.651C34.719 158.651 35.1688 158.201 35.1688 157.646Z" fill="#EBEBF3"/>
    <path d="M35.1688 161.668C35.1688 161.113 34.719 160.662 34.164 160.662C33.6091 160.662 33.1592 161.113 33.1592 161.668C33.1592 162.224 33.6091 162.674 34.164 162.674C34.719 162.674 35.1688 162.224 35.1688 161.668Z" fill="#EBEBF3"/>
    <path d="M35.1688 165.691C35.1688 165.136 34.719 164.686 34.164 164.686C33.6091 164.686 33.1592 165.136 33.1592 165.691C33.1592 166.247 33.6091 166.697 34.164 166.697C34.719 166.697 35.1688 166.247 35.1688 165.691Z" fill="#EBEBF3"/>
    <path d="M39.1884 121.44C39.1884 120.884 38.7385 120.434 38.1835 120.434C37.6286 120.434 37.1787 120.884 37.1787 121.44V121.805C37.1787 122.361 37.6286 122.811 38.1835 122.811C38.7385 122.811 39.1884 122.361 39.1884 121.805V121.44Z" fill="#EBEBF3"/>
    <path d="M39.1884 125.828C39.1884 125.273 38.7385 124.823 38.1835 124.823C37.6286 124.823 37.1787 125.273 37.1787 125.828V126.194C37.1787 126.749 37.6286 127.2 38.1835 127.2C38.7385 127.2 39.1884 126.749 39.1884 126.194V125.828Z" fill="#EBEBF3"/>
    <path d="M39.1884 130.217C39.1884 129.661 38.7385 129.211 38.1835 129.211C37.6286 129.211 37.1787 129.661 37.1787 130.217V130.583C37.1787 131.138 37.6286 131.588 38.1835 131.588C38.7385 131.588 39.1884 131.138 39.1884 130.583V130.217Z" fill="#EBEBF3"/>
    <path d="M39.1884 134.605C39.1884 134.05 38.7385 133.599 38.1835 133.599C37.6286 133.599 37.1787 134.05 37.1787 134.605V134.971C37.1787 135.526 37.6286 135.977 38.1835 135.977C38.7385 135.977 39.1884 135.526 39.1884 134.971V134.605Z" fill="#EBEBF3"/>
    <path d="M39.1884 138.994C39.1884 138.438 38.7385 137.988 38.1835 137.988C37.6286 137.988 37.1787 138.438 37.1787 138.994V139.36C37.1787 139.915 37.6286 140.365 38.1835 140.365C38.7385 140.365 39.1884 139.915 39.1884 139.36V138.994Z" fill="#EBEBF3"/>
    <path d="M39.1884 143.383C39.1884 142.827 38.7385 142.377 38.1835 142.377C37.6286 142.377 37.1787 142.827 37.1787 143.383V143.748C37.1787 144.304 37.6286 144.754 38.1835 144.754C38.7385 144.754 39.1884 144.304 39.1884 143.748V143.383Z" fill="#EBEBF3"/>
    <path d="M39.1884 147.771C39.1884 147.215 38.7385 146.765 38.1835 146.765C37.6286 146.765 37.1787 147.215 37.1787 147.771V148.137C37.1787 148.692 37.6286 149.142 38.1835 149.142C38.7385 149.142 39.1884 148.692 39.1884 148.137V147.771Z" fill="#EBEBF3"/>
    <path d="M39.1884 152.16C39.1884 151.605 38.7385 151.154 38.1835 151.154C37.6286 151.154 37.1787 151.605 37.1787 152.16V152.526C37.1787 153.081 37.6286 153.531 38.1835 153.531C38.7385 153.531 39.1884 153.081 39.1884 152.526V152.16Z" fill="#EBEBF3"/>
    <path d="M39.1884 156.549C39.1884 155.993 38.7385 155.543 38.1835 155.543C37.6286 155.543 37.1787 155.993 37.1787 156.549V156.914C37.1787 157.47 37.6286 157.92 38.1835 157.92C38.7385 157.92 39.1884 157.47 39.1884 156.914V156.549Z" fill="#EBEBF3"/>
    <path d="M39.1884 160.937C39.1884 160.381 38.7385 159.931 38.1835 159.931C37.6286 159.931 37.1787 160.381 37.1787 160.937V161.303C37.1787 161.858 37.6286 162.308 38.1835 162.308C38.7385 162.308 39.1884 161.858 39.1884 161.303V160.937Z" fill="#EBEBF3"/>
    <path d="M39.1884 165.326C39.1884 164.77 38.7385 164.32 38.1835 164.32C37.6286 164.32 37.1787 164.77 37.1787 165.326V165.691C37.1787 166.247 37.6286 166.697 38.1835 166.697C38.7385 166.697 39.1884 166.247 39.1884 165.691V165.326Z" fill="#EBEBF3"/>
    <path d="M45.2178 96.2972C45.2178 91.8536 48.8167 88.2515 53.2564 88.2515H169.817C174.257 88.2515 177.855 91.8536 177.855 96.2972V190.834C177.855 195.277 174.257 198.88 169.817 198.88H53.2564C48.8167 198.88 45.2178 195.277 45.2178 190.834V96.2972Z" fill="#EBEBF3"/>
    <mask id="mask0_1_1371" style="mask-type:luminance" maskUnits="userSpaceOnUse" x="59" y="96" width="111" height="89">
        <path d="M161.778 96.2971H67.3238C62.8842 96.2971 59.2852 99.8993 59.2852 104.343V176.754C59.2852 181.198 62.8842 184.8 67.3238 184.8H161.778C166.218 184.8 169.817 181.198 169.817 176.754V104.343C169.817 99.8993 166.218 96.2971 161.778 96.2971Z" fill="white"/>
    </mask>
    <g mask="url(#mask0_1_1371)">
        <path d="M161.778 96.2971H67.3238C62.8842 96.2971 59.2852 99.8993 59.2852 104.343V176.754C59.2852 181.198 62.8842 184.8 67.3238 184.8H161.778C166.218 184.8 169.817 181.198 169.817 176.754V104.343C169.817 99.8993 166.218 96.2971 161.778 96.2971Z" fill="#C5C7DD"/>
        <mask id="mask1_1_1371" style="mask-type:luminance" maskUnits="userSpaceOnUse" x="59" y="96" width="105" height="89">
            <path d="M155.749 96.2971H67.3238C62.8842 96.2971 59.2852 99.8993 59.2852 104.343V176.754C59.2852 181.198 62.8842 184.8 67.3238 184.8H155.749C160.189 184.8 163.788 181.198 163.788 176.754V104.343C163.788 99.8993 160.189 96.2971 155.749 96.2971Z" fill="white"/>
        </mask>
        <g mask="url(#mask1_1_1371)">
            <path d="M155.749 96.2971H67.3238C62.8842 96.2971 59.2852 99.8993 59.2852 104.343V176.754C59.2852 181.198 62.8842 184.8 67.3238 184.8H155.749C160.189 184.8 163.788 181.198 163.788 176.754V104.343C163.788 99.8993 160.189 96.2971 155.749 96.2971Z" fill="#272A49"/>
            <g filter="url(#filter0_d_1_1371)">
                <path d="M141.682 148.594C138.352 148.594 135.653 145.893 135.653 142.56C135.653 139.227 138.352 136.526 141.682 136.526C145.012 136.526 147.711 139.227 147.711 142.56C147.711 145.893 145.012 148.594 141.682 148.594Z" fill="#10DDFF"/>
                <path d="M89.43 148.594C86.1003 148.594 83.401 145.893 83.401 142.56C83.401 139.227 86.1003 136.526 89.43 136.526C92.7597 136.526 95.459 139.227 95.459 142.56C95.459 145.893 92.7597 148.594 89.43 148.594Z" fill="#10DDFF"/>
                <path d="M124.6 146.583C124.108 147.769 123.387 148.846 122.478 149.754C121.569 150.662 120.489 151.382 119.302 151.873C118.114 152.364 116.842 152.617 115.556 152.617C114.271 152.617 112.998 152.364 111.81 151.873C110.622 151.382 109.544 150.662 108.635 149.754C107.726 148.846 107.005 147.769 106.513 146.583" stroke="#10DDFF" stroke-width="3" stroke-linecap="round"/>
            </g>
            <path d="M133.643 100.32H151.73C156.169 100.32 159.768 103.922 159.768 108.365V126.468L133.643 100.32Z" fill="white" fill-opacity="0.12"/>
        </g>
    </g>
    <path d="M63.3045 190.834C63.3045 189.723 62.4047 188.823 61.2948 188.823C60.1849 188.823 59.2852 189.723 59.2852 190.834C59.2852 191.945 60.1849 192.846 61.2948 192.846C62.4047 192.846 63.3045 191.945 63.3045 190.834Z" fill="#C5C7DD"/>
    <path d="M71.3426 190.834C71.3426 189.723 70.4428 188.823 69.3329 188.823C68.223 188.823 67.3232 189.723 67.3232 190.834C67.3232 191.945 68.223 192.846 69.3329 192.846C70.4428 192.846 71.3426 191.945 71.3426 190.834Z" fill="#C5C7DD"/>
    <path d="M79.3816 190.834C79.3816 189.723 78.4819 188.823 77.372 188.823C76.2621 188.823 75.3623 189.723 75.3623 190.834C75.3623 191.945 76.2621 192.846 77.372 192.846C78.4819 192.846 79.3816 191.945 79.3816 190.834Z" fill="#C5C7DD"/>
    <path d="M168.811 189.829H130.628C130.073 189.829 129.623 190.279 129.623 190.834C129.623 191.39 130.073 191.84 130.628 191.84H168.811C169.366 191.84 169.816 191.39 169.816 190.834C169.816 190.279 169.366 189.829 168.811 189.829Z" fill="#C5C7DD"/>
    <path d="M184.889 172.731C184.889 163.844 177.691 156.64 168.812 156.64C159.932 156.64 152.734 163.844 152.734 172.731C152.734 181.619 159.932 188.823 168.812 188.823C177.691 188.823 184.889 181.619 184.889 172.731Z" fill="#246CAE"/>
    <path d="M125.939 170.217C125.939 161.33 118.741 154.126 109.861 154.126C100.982 154.126 93.7842 161.33 93.7842 170.217C93.7842 179.104 100.982 186.309 109.861 186.309C118.741 186.309 125.939 179.104 125.939 170.217Z" fill="#246CAE"/>
    <path d="M157.372 105.324L141.317 179.318C141.116 180.243 140.298 180.903 139.353 180.903H118.067C116.957 180.903 116.058 181.804 116.058 182.915V186.812C116.058 187.923 116.957 188.823 118.067 188.823H234.995C235.897 188.823 236.688 188.223 236.93 187.355L259.625 106.294C259.984 105.011 259.021 103.74 257.69 103.74H159.336C158.39 103.74 157.573 104.399 157.372 105.324Z" fill="#C7CED1"/>
    <path d="M199.375 157.234C205.377 157.234 210.919 152.418 211.755 146.478C212.59 140.537 208.401 135.722 202.4 135.722C196.398 135.722 190.855 140.537 190.02 146.478C189.184 152.418 193.373 157.234 199.375 157.234Z" fill="white"/>
    <path d="M113.83 203.909C109.835 203.909 106.596 200.666 106.596 196.667V182.006C106.596 174.107 112.994 167.703 120.886 167.703C121.873 167.703 122.673 168.503 122.673 169.491V199.886C122.673 202.108 120.874 203.909 118.654 203.909H113.83Z" fill="#EBEBF3"/>
    <path d="M129.623 167.703H118.57C116.35 167.703 114.551 169.504 114.551 171.726V199.886C114.551 202.107 116.35 203.909 118.57 203.909H129.623C131.843 203.909 133.643 202.107 133.643 199.886V171.726C133.643 169.504 131.843 167.703 129.623 167.703Z" fill="#C5C7DD"/>
    <path d="M165.077 203.909C161.081 203.909 157.842 200.666 157.842 196.667V182.006C157.842 174.107 164.24 167.703 172.133 167.703C173.119 167.703 173.919 168.503 173.919 169.491V199.886C173.919 202.108 172.12 203.909 169.9 203.909H165.077Z" fill="#EBEBF3"/>
    <path d="M180.869 167.703H169.816C167.596 167.703 165.797 169.504 165.797 171.726V199.886C165.797 202.107 167.596 203.909 169.816 203.909H180.869C183.089 203.909 184.889 202.107 184.889 199.886V171.726C184.889 169.504 183.089 167.703 180.869 167.703Z" fill="#C5C7DD"/>
    <path d="M106.58 68.2295C106.58 70.0586 108.076 71.5555 109.904 71.5555C111.732 71.5555 113.227 70.0586 113.227 68.2295H106.58Z" fill="#616466"/>
    <path d="M104.005 59.9143H115.72C116.384 56.3386 118.627 52.8461 120.953 49.1873C123.695 44.9464 126.52 40.5392 126.52 36.2983C126.52 28.2323 119.043 21.6631 109.904 21.6631C100.765 21.6631 93.2871 28.2323 93.2871 36.2983C93.2871 40.5392 96.1119 44.9464 98.7706 49.1873C101.097 52.8461 103.34 56.3386 104.005 59.9143Z" fill="#FFCE31"/>
    <path d="M105.251 47.9397C105.334 48.4386 105.501 48.9376 105.583 49.4365C105.833 50.3512 105.999 51.1828 106.248 52.0975C106.996 55.2573 107.661 57.9183 108.242 59.9972H108.741C108.325 57.9183 107.744 55.1742 106.996 52.0143C106.83 51.1828 106.581 50.2681 106.415 49.3533C106.331 48.9376 106.248 48.4386 106.082 48.0229C106.747 47.8566 108.325 47.3576 109.904 45.6114C111.482 47.3576 113.061 47.8566 113.726 48.0229C113.643 48.5218 113.559 48.9376 113.393 49.3533C113.227 50.2681 112.978 51.1828 112.812 52.0143C112.064 55.1742 111.482 57.9183 111.067 59.9972H111.566C112.064 57.9183 112.812 55.2573 113.559 52.0975C113.726 51.2659 113.975 50.3512 114.224 49.4365C114.307 48.9376 114.473 48.4386 114.557 47.9397C115.221 47.8566 115.803 47.6903 116.218 47.2745C116.717 46.7756 116.966 46.1935 116.799 45.5282C116.717 45.1956 116.55 44.7799 116.052 44.6967C115.803 44.6135 115.636 44.6135 115.387 44.6967C115.138 44.7799 114.972 44.9462 114.889 45.0293C114.473 45.5282 114.307 46.0272 114.141 46.5261L113.892 47.2745C113.892 47.2745 113.227 47.3576 111.648 46.2767C110.818 45.6946 110.569 45.2788 110.319 45.0293C110.569 44.6967 110.818 44.4472 111.067 44.0314C111.15 43.782 111.233 43.6157 111.316 43.2831C111.316 43.0336 111.316 42.701 111.15 42.4515C110.984 42.202 110.818 41.9526 110.402 41.7863C110.236 41.7031 110.07 41.7031 109.904 41.7031C109.738 41.7031 109.571 41.7031 109.405 41.7863C109.073 41.9526 108.824 42.202 108.657 42.4515C108.492 42.701 108.492 43.0336 108.492 43.2831C108.492 43.5325 108.575 43.782 108.741 44.0314C108.907 44.4472 109.156 44.7799 109.488 45.0293C109.239 45.2788 108.99 45.6946 108.159 46.2767C106.664 47.2745 105.916 47.2745 105.916 47.2745L105.667 46.5261C105.501 46.0272 105.334 45.5282 104.919 45.0293C104.836 44.9462 104.669 44.7799 104.42 44.6967C104.171 44.6135 103.922 44.6135 103.756 44.6967C103.257 44.863 103.091 45.2788 103.008 45.5282C102.925 46.1935 103.174 46.7756 103.59 47.2745C104.088 47.6903 104.669 47.8566 105.251 47.9397ZM114.889 46.6924C115.055 46.2767 115.221 45.7777 115.553 45.5282C115.636 45.4451 115.72 45.4451 115.72 45.4451H115.886C115.969 45.4451 116.052 45.5282 116.135 45.7777C116.218 46.1103 116.052 46.6093 115.72 46.8587C115.47 47.025 115.138 47.1914 114.806 47.2745C114.806 47.025 114.806 46.8587 114.889 46.6924ZM109.405 42.701C109.571 42.5347 109.738 42.3684 109.904 42.3684C110.07 42.3684 110.236 42.4515 110.402 42.701C110.569 42.9505 110.485 43.2831 110.319 43.6157C110.236 43.8652 110.07 44.1146 109.904 44.2809C109.738 44.0314 109.571 43.8652 109.488 43.6157C109.322 43.3662 109.239 43.0336 109.405 42.701ZM103.756 45.6114C103.756 45.4451 103.839 45.3619 104.005 45.2788H104.171C104.171 45.2788 104.254 45.3619 104.337 45.3619C104.587 45.6114 104.836 46.1103 105.002 46.5261C105.085 46.6924 105.085 46.8587 105.168 47.025C104.836 46.9419 104.504 46.8587 104.254 46.6093C103.922 46.4429 103.756 46.0272 103.756 45.6114Z" fill="#C79127"/>
    <path d="M104.005 61.5771H115.885V63.0741H104.005V61.5771ZM104.836 64.5705H115.055V66.0673H104.836V64.5705Z" fill="#94989B"/>
    <path d="M104.835 63.0742H115.054V64.5711H104.835V63.0742Z" fill="#616466"/>
    <path d="M115.885 61.5771L104.835 64.5705V66.1507L115.885 63.0741V61.5771ZM105.666 67.6476H114.223V69.1444H105.666V67.6476Z" fill="#94989B"/>
    <path d="M105.666 66.1514H114.223V67.6482H105.666V66.1514Z" fill="#616466"/>
    <path d="M115.054 64.5703L105.666 67.647V69.2272L115.054 66.1505V64.5703Z" fill="#94989B"/>
    <rect x="77" y="14" width="64" height="65" fill="white"/>
    <defs>
        <filter id="filter0_d_1_1371" x="45.0014" y="98.1256" width="141.11" height="94.3914" filterUnits="userSpaceOnUse" color-interpolation-filters="sRGB">
            <feFlood flood-opacity="0" result="BackgroundImageFix"/>
            <feColorMatrix in="SourceAlpha" type="matrix" values="0 0 0 0 0 0 0 0 0 0 0 0 0 0 0 0 0 0 127 0" result="hardAlpha"/>
            <feOffset/>
            <feGaussianBlur stdDeviation="19.2"/>
            <feColorMatrix type="matrix" values="0 0 0 0 1 0 0 0 0 1 0 0 0 0 1 0 0 0 0.2 0"/>
            <feBlend mode="normal" in2="BackgroundImageFix" result="effect1_dropShadow_1_1371"/>
            <feBlend mode="normal" in="SourceGraphic" in2="effect1_dropShadow_1_1371" result="shape"/>
        </filter>
    </defs>
</svg>
